<mxfile host="app.diagrams.net" modified="2023-12-13T19:40:54.255Z" agent="Mozilla/5.0 (Windows NT 10.0; Win64; x64) AppleWebKit/537.36 (KHTML, like Gecko) Chrome/117.0.0.0 Safari/537.36" version="22.1.8" etag="nJBeQ40QViydWgkPxqCQ" type="github">
  <diagram name="PÃ¡gina-1" id="DE_O8TjWzz9FJRSdt5aA">
    <mxGraphModel>
      <root>
        <mxCell id="0" />
        <mxCell id="1" parent="0" />
      </root>
    </mxGraphModel>
  </diagram>
</mxfile>
